Coordinates
version=1
nRows=26
nColumns=24
inDegrees=yes

Units are S.I. units (second, meters, Newtons, ...)
Angles are in degrees.

endheader
time	pelvis_tilt	pelvis_list	pelvis_rotation	pelvis_tx	pelvis_ty	pelvis_tz	hip_flexion_r	hip_adduction_r	hip_rotation_r	knee_angle_r	ankle_angle_r	subtalar_angle_r	mtp_angle_r	hip_flexion_l	hip_adduction_l	hip_rotation_l	knee_angle_l	ankle_angle_l	subtalar_angle_l	mtp_angle_l	lumbar_extension	lumbar_bending	lumbar_rotation
      0.63000000	     -1.25750140	      5.49147224	      5.94157614	     -0.81792624	      0.96747169	      0.31169083	     29.65806483	     -5.41030291	     -5.73159245	     -6.89881425	     11.10863519	     -4.80857516	      5.40184777	    -19.92126274	      7.81395570	      7.22925170	     -6.81610681	      7.52830863	     -2.86605022	      6.92613696	      0.61672394	     -3.24760638	     -4.71454167
      0.63416667	     -1.30246816	      5.41456790	      6.00230267	     -0.81173849	      0.96676373	      0.31186938	     29.74776945	     -5.31526178	     -5.69360981	     -7.34408495	     11.05863927	     -4.94915969	      5.40527910	    -20.11689254	      7.65950960	      7.18470964	     -7.01346863	      7.28955138	     -2.80600760	      6.93125862	      0.72293781	     -3.15811651	     -4.71789804
      0.63833333	     -1.42965017	      5.32090230	      6.04916451	     -0.80551836	      0.96596391	      0.31213893	     29.89889190	     -5.17794625	     -5.44329418	     -7.77710880	     11.01493377	     -5.45634481	      5.44041442	    -20.17029963	      7.49373846	      7.00401298	     -7.31331116	      7.13796460	     -2.50978447	      7.04024554	      0.93869992	     -3.04769560	     -4.72260720
      0.64250000	     -1.47240725	      5.22693270	      6.10471681	     -0.79922623	      0.96529323	      0.31233727	     29.98451661	     -5.06326241	     -5.40524558	     -8.29956269	     10.88602648	     -5.60009444	      5.44442812	    -20.34661841	      7.32046574	      6.93986006	     -7.54564407	      6.85177772	     -2.43340041	      7.06358752	      1.05044829	     -2.93929928	     -4.74199979
      0.64666667	     -1.63868155	      5.11027352	      6.14045985	     -0.79290841	      0.96448501	      0.31265913	     30.16464677	     -4.89024872	     -5.09025284	     -8.77476914	     10.72421505	     -6.21788841	      5.49719476	    -20.32429484	      7.13494178	      6.70620952	     -7.90245608	      6.66908097	     -2.08486617	      7.30457101	      1.32578729	     -2.80644313	     -4.75503306
      0.65083333	     -1.65521114	      4.96329083	      6.16250656	     -0.78652915	      0.96388926	      0.31296750	     30.16831899	     -4.67822750	     -4.85877068	     -9.24160005	     10.46534717	     -6.77013493	      5.93716977	    -20.48719827	      6.90409545	      6.51254620	     -8.19368283	      6.31329768	     -1.92779812	      9.47305552	      1.41821229	     -2.62654463	     -4.85017907
      0.65500000	     -1.81921847	      4.86171715	      6.18021684	     -0.78009654	      0.96311371	      0.31324368	     30.39859774	     -4.53755808	     -4.72050229	     -9.87806372	     10.28136480	     -6.94044543	      5.95099560	    -20.50240940	      6.74901857	      6.40561608	     -8.47263724	      5.93635357	     -1.80177341	      9.54506411	      1.70154857	     -2.51850449	     -4.77494456
      0.65916667	     -2.00062224	      4.73554580	      6.20492944	     -0.77368588	      0.96234013	      0.31357908	     30.61698723	     -4.35592965	     -4.47098684	    -10.47285642	      9.98155668	     -7.50123126	      5.99014005	    -20.43810615	      6.56451234	      6.23554417	     -8.87327656	      5.68228324	     -1.60997628	      9.76488973	      2.00596234	     -2.38422201	     -4.72805638
      0.66333333	     -2.13362111	      4.58654976	      6.20110072	     -0.76719636	      0.96166030	      0.31394150	     30.77325085	     -4.13514942	     -4.22538787	    -11.06125087	      9.65222804	     -8.01336382	      6.04138981	    -20.43449372	      6.35833559	      6.04632603	     -9.23867797	      5.30777451	     -1.45705602	     10.07179973	      2.25796868	     -2.21508364	     -4.71733639
      0.66750000	     -2.27928044	      4.43984070	      6.20206985	     -0.76068687	      0.96099456	      0.31430783	     30.94740076	     -3.92125161	     -4.00147873	    -11.67910189	      9.31116878	     -8.54887691	      6.11954090	    -20.40638287	      6.15274863	      5.86712425	     -9.61891617	      4.88807919	     -1.28258944	     10.55054986	      2.53404459	     -2.05028925	     -4.67143808
      0.67166667	     -2.36951523	      4.28376390	      6.16935296	     -0.75413537	      0.96041258	      0.31472072	     31.07062261	     -3.68340263	     -3.81103054	    -12.31547759	      8.90780567	     -8.93569834	      6.78247018	    -20.43572289	      5.93831236	      5.64093642	     -9.97889595	      4.34970520	     -1.17959391	     14.67099013	      2.72566022	     -1.87742806	     -4.67006424
      0.67583333	     -2.34879842	      4.15921002	      6.06575518	     -0.74765985	      0.95989400	      0.31509412	     31.14288153	     -3.46115594	     -3.67751880	    -13.08158658	      8.65149975	     -9.07940482	      6.78466097	    -20.59194300	      5.78428490	      5.44639805	    -10.33061614	      3.80988329	     -1.15748215	     14.69118336	      2.80303131	     -1.68345799	     -4.62565581
      0.68000000	     -2.47708703	      4.00017615	      5.99280245	     -0.74118564	      0.95931532	      0.31560206	     31.31992267	     -3.19180847	     -3.39497954	    -13.74650057	      8.23176190	     -9.63213280	      6.79961550	    -20.51621899	      5.59067920	      5.20502460	    -10.80686863	      3.34009836	     -1.05106331	     14.83923134	      3.03757354	     -1.50627684	     -4.45841496
      0.68416667	     -2.60364712	      3.83602930	      5.93438313	     -0.73465544	      0.95879365	      0.31609989	     31.49440728	     -2.93236552	     -3.18771715	    -14.43471666	      7.85972029	    -10.08005876	      6.81956022	    -20.43231810	      5.38407172	      4.97857589	    -11.29237495	      2.79300071	     -0.93646041	     15.07217808	      3.28357555	     -1.31917702	     -4.41185481
      0.68833333	     -2.67747544	      3.66902923	      5.87465329	     -0.72806421	      0.95838199	      0.31655981	     31.62028500	     -2.68621770	     -3.10002149	    -15.15468258	      7.54476091	    -10.26758700	      6.82570759	    -20.41579229	      5.17251811	      4.80260480	    -11.74414216	      2.12565314	     -0.86703235	     15.17970456	      3.47361329	     -1.11499060	     -4.39198684
      0.69250000	     -2.85099511	      3.48320655	      5.82380149	     -0.72153562	      0.95788429	      0.31712958	     31.83910764	     -2.40364028	     -2.88397435	    -15.84936051	      7.17383066	    -10.94866161	      6.86154338	    -20.20702292	      4.93907696	      4.54698610	    -12.35630934	      1.58135052	     -0.69043102	     15.75580949	      3.76454783	     -0.92680893	     -4.27028289
      0.69666667	     -2.92405228	      3.30735849	      5.73684168	     -0.71491422	      0.95756050	      0.31764057	     31.95919525	     -2.14187347	     -2.81019218	    -16.56851257	      6.86986106	    -11.01945417	      6.86658483	    -20.13861399	      4.72801427	      4.32544556	    -12.88981208	      0.83945771	     -0.68354736	     15.89197636	      3.96474016	     -0.69876411	     -4.27084581
      0.70083333	     -3.12595298	      3.12971432	      5.68137725	     -0.70837944	      0.95711758	      0.31823089	     32.22032519	     -1.88017979	     -2.66575934	    -17.30508017	      6.54571227	    -11.56117245	      6.89141552	    -19.84732305	      4.50771557	      4.08193008	    -13.57667578	      0.24459404	     -0.53527579	     16.65742685	      4.29981976	     -0.52308479	     -4.14524441
      0.70500000	     -3.14346948	      2.89531765	      5.58493359	     -0.70176087	      0.95696661	      0.31885144	     32.24018722	     -1.54002876	     -2.56577363	    -17.94800546	      6.24852226	    -11.82465577	      7.03033962	    -19.75901961	      4.21535552	      3.75110398	    -14.21746912	     -0.59675072	     -0.54452513	     22.37899459	      4.41831763	     -0.23812844	     -4.15490080
      0.70916667	     -3.23535254	      2.73203182	      5.50831872	     -0.69520087	      0.95676349	      0.31941359	     32.38798470	     -1.30939709	     -2.56366120	    -18.71043453	      6.08061906	    -11.84269307	      7.02736715	    -19.57818473	      4.01167359	      3.56203684	    -14.88686601	     -1.42012314	     -0.52705099	     22.40414236	      4.61501041	     -0.04965869	     -4.12619595
      0.71333333	     -3.38363997	      2.56460121	      5.43546268	     -0.68872162	      0.95653363	      0.32002707	     32.58303892	     -1.07018006	     -2.51207409	    -19.43962024	      5.89760093	    -11.98098894	      7.01538540	    -19.25603633	      3.80423120	      3.33272205	    -15.70521995	     -2.15185576	     -0.50044765	     22.51457432	      4.87193664	      0.12275503	     -4.06510008
      0.71750000	     -3.44020258	      2.36522289	      5.36109014	     -0.68220311	      0.95648407	      0.32063186	     32.66332599	     -0.80457317	     -2.54037589	    -20.14965820	      5.76893282	    -12.06664118	      7.00554638	    -19.03800787	      3.55423883	      3.13184840	    -16.48553304	     -3.01890854	     -0.49010102	     22.59064178	      5.01662005	      0.35342078	     -4.04438223
      0.72166667	     -3.55599289	      2.19231877	      5.28470344	     -0.67580194	      0.95639950	      0.32129559	     32.79690164	     -0.55635064	     -2.49214240	    -20.83189998	      5.65115546	    -12.22467979	      6.97696274	    -18.66870968	      3.32977580	      2.87146161	    -17.42297697	     -3.79586734	     -0.43950982	     22.81098891	      5.23407712	      0.53761465	     -3.99965754
      0.72583333	     -3.65541612	      2.00461348	      5.22528231	     -0.66942174	      0.95638236	      0.32193540	     32.91399489	     -0.31324353	     -2.53430762	    -21.52767995	      5.56238491	    -12.39044498	      6.90248706	    -18.29894399	      3.08489538	      2.66929460	    -18.37493521	     -4.61294586	     -0.40246393	     23.32089621	      5.41870131	      0.74533653	     -3.97610377
      0.73000000	     -3.66839005	      1.80164030	      5.15582433	     -0.66307974	      0.95655490	      0.32262388	     32.89034833	     -0.03289138	     -2.52594226	    -22.12672136	      5.54124873	    -12.53257986	      6.30246597	    -17.98275971	      2.81061949	      2.42962425	    -19.36149938	     -5.59227858	     -0.45946850	     27.00418484	      5.49438420	      0.97098586	     -4.02736556
      0.73416667	     -3.67906556	      1.60762294	      5.09337037	     -0.65679431	      0.95675700	      0.32325893	     32.87155852	      0.21026587	     -2.62145854	    -22.73907359	      5.52168293	    -12.44051542	      6.29952621	    -17.63880484	      2.55390569	      2.25062146	    -20.40248822	     -6.49998379	     -0.51008299	     27.01113763	      5.55564744	      1.19501722	     -3.97590161
